<?xml version="1.0" encoding="utf-8"?>
<!-- Generator: Adobe Illustrator 22.1.0, SVG Export Plug-In . SVG Version: 6.00 Build 0)  -->
<svg version="1.1" id="Layer_1" xmlns="http://www.w3.org/2000/svg" xmlns:xlink="http://www.w3.org/1999/xlink" x="0px" y="0px"
	 viewBox="0 0 167.6 88" style="enable-background:new 0 0 167.6 88;" xml:space="preserve">
<style type="text/css">
	.st0{fill:#C28B65;}
</style>
<g>
	<path class="st0" d="M32.2,57.2c-0.2-0.7-0.5-1.3-1.1-1.7c0.6-0.1,1.1-0.5,1.5-1c0.4-0.5,0.7-1.1,0.9-1.8c0.4-1.4,0.3-2.5-0.2-3.4
		c-0.5-0.9-1.4-1.5-2.6-1.8c-1.2-0.3-2.3-0.7-3.5-1c-0.4-0.1-0.7-0.2-1.1-0.3c-0.2,0.6-0.4,1.2-0.6,1.8c0.3,0.2,0.7,0.4,1,0.7
		c-1.1,3.6-2.2,7.3-3.3,10.9c-0.4,0-0.8,0-1.3,0c-0.2,0.6-0.4,1.2-0.6,1.8c1.8,0.6,3.7,1.1,5.5,1.6c1.3,0.4,2.4,0.3,3.3-0.3
		c0.9-0.6,1.5-1.6,1.9-3.1C32.3,58.7,32.3,57.9,32.2,57.2z M29.9,59c-0.2,0.7-0.5,1.2-0.9,1.4c-0.4,0.3-0.9,0.3-1.5,0.2
		c-0.7-0.2-1.4-0.4-2-0.6c0.4-1.5,0.8-2.9,1.3-4.4c0.7,0.2,1.4,0.4,2.2,0.6c0.6,0.2,0.9,0.5,1.1,0.9C30.1,57.6,30.1,58.2,29.9,59z
		 M30.3,53.8c-0.4,0.3-0.9,0.3-1.5,0.1c-0.5-0.1-1-0.3-1.5-0.4c0.4-1.3,0.8-2.7,1.2-4c0.5,0.1,1,0.3,1.4,0.4c0.6,0.2,1,0.5,1.2,0.9
		c0.2,0.4,0.2,1,0,1.7C31,53.1,30.7,53.6,30.3,53.8z"/>
	<path class="st0" d="M39.1,59.6c0.5-0.6,1-1.3,1.5-1.9c0.2-0.2,0.4-0.4,0.6-0.5c0.2-0.1,0.4-0.2,0.5-0.1c0.1,0,0.2,0,0.2,0.1
		c0,0,0.1,0.1,0.3,0.2c0.3-0.7,0.5-1.4,0.8-2.1c-0.2-0.2-0.3-0.4-0.5-0.5c-0.2-0.1-0.4-0.2-0.6-0.3c-0.5-0.1-0.9,0-1.3,0.2
		c-0.4,0.3-0.8,0.7-1.3,1.3c-0.6,0.8-1.2,1.5-1.8,2.3C37.2,58.1,37,58,36.7,58c0.2-0.7,0.3-1.5,0.5-2.2c0.4,0,0.7-0.1,1.1-0.1
		c0.1-0.6,0.3-1.2,0.4-1.9c-1.4-0.3-2.8-0.7-4.3-1c-0.2,0.6-0.3,1.2-0.5,1.9c0.4,0.2,0.7,0.4,1.1,0.6c-0.6,2.4-1.2,4.7-1.8,7.1
		c-0.4,0-0.9,0-1.3,0c-0.2,0.6-0.3,1.2-0.5,1.8c1.5,0.4,3,0.7,4.5,1.1c0.1-0.6,0.3-1.2,0.4-1.9c-0.3-0.2-0.6-0.4-0.9-0.6
		c0.2-0.7,0.3-1.4,0.5-2.1c0.3,0.1,0.6,0.1,0.9,0.2c0.3,1.6,0.5,3.1,0.8,4.7c1,0.2,2.1,0.5,3.1,0.7c0.1-0.6,0.3-1.2,0.4-1.9
		c-0.4-0.2-0.7-0.3-1.1-0.5C39.8,62.5,39.5,61.1,39.1,59.6z"/>
	<path class="st0" d="M51.9,56.4c-1.3-0.2-2.6-0.4-3.9-0.7c-0.1,0.6-0.2,1.3-0.3,1.9c0.3,0.1,0.6,0.3,0.9,0.4
		c-0.7,1.8-1.5,3.5-2.3,5.2c0,0,0,0,0,0c0-0.3,0-0.6,0-0.9c-0.1-1.6-0.2-3.2-0.3-4.8c0.3,0,0.6,0,0.9,0c0.1-0.6,0.2-1.3,0.3-1.9
		c-1.3-0.2-2.6-0.5-3.9-0.8c-0.1,0.6-0.3,1.3-0.4,1.9c0.2,0.1,0.5,0.2,0.7,0.3c0.2,3.3,0.5,6.7,0.8,10c-0.1,0.3-0.3,0.6-0.4,0.8
		c-0.2,0.4-0.4,0.6-0.7,0.9c-0.3,0.2-0.6,0.3-1,0.2c-0.1,0-0.1,0-0.2-0.1c-0.1,0-0.2-0.1-0.2-0.1c-0.2,0.7-0.5,1.5-0.7,2.2
		c0.2,0.1,0.4,0.2,0.6,0.3c0.2,0.1,0.3,0.1,0.5,0.2c0.8,0.2,1.5,0,2-0.5c0.5-0.5,1-1.1,1.4-1.9c1.7-3.6,3.4-7.2,5-10.8
		c0.3,0,0.5,0,0.8,0C51.7,57.7,51.8,57,51.9,56.4z"/>
	<path class="st0" d="M53.4,62.4c0.2-1,0.4-1.8,0.8-2.4c0.4-0.6,0.8-0.9,1.5-0.8c0.2,0,0.4,0.1,0.5,0.2c0.1,0.1,0.3,0.2,0.4,0.4
		c0,0.6,0.1,1.2,0.1,1.9c0.6,0.1,1.2,0.2,1.8,0.2c0.1-1,0.2-2.1,0.4-3.1c-0.3-0.6-0.7-1-1.1-1.4c-0.5-0.3-1-0.6-1.7-0.7
		c-1.2-0.2-2.3,0.2-3.1,1.2c-0.8,1-1.4,2.4-1.7,4.1c0,0.1,0,0.2-0.1,0.3c-0.3,1.7-0.2,3.2,0.3,4.4c0.5,1.2,1.4,1.9,2.7,2.1
		c1,0.1,1.9-0.1,2.6-0.9c0.8-0.7,1.2-1.7,1.3-2.8c0,0,0,0,0-0.1c-0.7-0.1-1.4-0.2-2-0.3c-0.1,0.5-0.3,1-0.5,1.3
		c-0.3,0.3-0.6,0.4-1,0.4c-0.6-0.1-1-0.5-1.1-1.1c-0.1-0.7-0.1-1.5,0-2.6C53.4,62.7,53.4,62.6,53.4,62.4z"/>
	<path class="st0" d="M65.9,58.2c-0.3,0-0.6-0.1-0.9-0.1c-0.1,0.6-0.1,1.3-0.2,1.9c0.3,0.1,0.6,0.3,0.9,0.4
		c-0.1,0.8-0.2,1.7-0.2,2.5c-0.9-0.1-1.8-0.2-2.7-0.3c0.1-0.8,0.2-1.7,0.3-2.5c0.3-0.1,0.7-0.2,1-0.2c0.1-0.6,0.1-1.3,0.2-1.9
		c-1.4-0.1-2.8-0.3-4.3-0.5c-0.1,0.6-0.2,1.3-0.2,1.9c0.4,0.2,0.8,0.3,1.1,0.5c-0.3,2.4-0.6,4.8-0.8,7.3c-0.4,0.1-0.8,0.1-1.3,0.2
		c-0.1,0.6-0.2,1.3-0.2,1.9c1.5,0.2,3,0.3,4.5,0.5c0.1-0.6,0.1-1.3,0.2-1.9c-0.3-0.1-0.6-0.3-1-0.4c0.1-0.8,0.2-1.6,0.2-2.3
		c0.9,0.1,1.8,0.2,2.8,0.3c-0.1,0.8-0.1,1.6-0.2,2.3c-0.3,0.1-0.7,0.2-1,0.2c-0.1,0.6-0.1,1.3-0.2,1.9c1.5,0.1,3,0.3,4.5,0.4
		c0-0.6,0.1-1.3,0.1-1.9c-0.4-0.1-0.8-0.3-1.2-0.4c0.2-2.4,0.4-4.9,0.6-7.3c0.4-0.1,0.8-0.2,1.2-0.2c0-0.6,0.1-1.3,0.1-1.9
		c-0.4,0-0.8-0.1-1.2-0.1C67.3,58.3,66.6,58.2,65.9,58.2z"/>
	<path class="st0" d="M76.5,68.1c0-0.2,0-0.3,0-0.5c0.1-1.6,0.1-3.2,0.2-4.9c0-1.3-0.2-2.3-0.8-3.1c-0.6-0.7-1.4-1.1-2.4-1.2
		c-0.6,0-1.2,0.1-1.7,0.3c-0.5,0.2-1,0.5-1.4,0.9c-0.1,0.9-0.1,1.7-0.2,2.6c0.6,0,1.1,0.1,1.7,0.1c0.1-0.4,0.1-0.8,0.2-1.3
		c0.1-0.1,0.3-0.2,0.5-0.3c0.2-0.1,0.4-0.1,0.7-0.1c0.4,0,0.8,0.2,1,0.5c0.2,0.3,0.3,0.8,0.3,1.3c0,0.4,0,0.8-0.1,1.2
		c-0.4,0-0.8,0-1.1-0.1c-1.2-0.1-2.1,0.2-2.8,0.7c-0.7,0.6-1,1.4-1.1,2.5c-0.1,1.1,0.1,1.9,0.6,2.6c0.5,0.7,1.1,1,1.9,1.1
		c0.5,0,1-0.1,1.4-0.3c0.4-0.2,0.8-0.6,1-1c0,0.2,0,0.4,0.1,0.6c0,0.2,0.1,0.4,0.1,0.6c0.9,0,1.8,0.1,2.7,0.1c0-0.6,0-1.3,0.1-1.9
		c-0.2-0.1-0.5-0.1-0.7-0.2C76.5,68.4,76.5,68.3,76.5,68.1z M74.3,67.3c-0.2,0.3-0.4,0.6-0.7,0.7c-0.3,0.2-0.6,0.3-1,0.3
		c-0.3,0-0.6-0.1-0.8-0.4c-0.2-0.2-0.2-0.6-0.2-1c0-0.4,0.2-0.8,0.4-1.1c0.3-0.3,0.6-0.4,1.1-0.4c0.4,0,0.8,0,1.2,0.1
		C74.3,66.1,74.3,66.7,74.3,67.3z"/>
	<path class="st0" d="M85.7,68.5c0-2.4,0-4.9-0.1-7.3c0.4-0.1,0.8-0.2,1.2-0.3c0-0.6,0-1.3,0-1.9c-0.4,0-0.8,0-1.2,0
		c-1.2,0-2.4,0-3.6,0c-1.1,0-1.9,0.3-2.6,1.1c-0.6,0.7-1,1.6-1,2.8c0,0.7,0.1,1.4,0.4,1.9c0.3,0.6,0.6,1,1.1,1.3
		c-0.4,0.8-0.7,1.7-1.1,2.5c-0.3,0.1-0.7,0.1-1,0.2c0,0.6,0,1.3-0.1,1.9c0.8,0,1.7,0,2.5,0.1c0.6-1.4,1.1-2.7,1.7-4.1
		c0.5,0,0.9,0,1.4,0c0,0.6,0,1.3,0,1.9c-0.4,0.1-0.7,0.2-1.1,0.3c0,0.6,0,1.3,0,1.9c1.6,0,3.1,0,4.7,0c0-0.6,0-1.3,0-1.9
		C86.5,68.7,86.1,68.6,85.7,68.5z M83.4,64.5c-0.5,0-1,0-1.5,0c-0.4,0-0.7-0.2-0.9-0.5c-0.2-0.3-0.3-0.7-0.3-1.1
		c0-0.4,0.1-0.8,0.4-1.1c0.2-0.3,0.6-0.5,1-0.5c0.5,0,0.9,0,1.4,0C83.4,62.4,83.4,63.4,83.4,64.5z"/>
	<path class="st0" d="M104.5,67.5c-0.4-3.8-0.7-7.6-1.1-11.3c0.4-0.1,0.7-0.3,1.1-0.4c-0.1-0.6-0.1-1.3-0.2-1.9
		c-1.3,0.1-2.6,0.3-3.9,0.4c-0.6,4-1.2,7.9-1.9,11.9c0,0,0,0,0,0c-1.2-3.8-2.4-7.6-3.5-11.5c-0.9,0.1-1.9,0.1-2.8,0.1
		c-0.4,0-0.8,0-1.1,0c0,0.6,0,1.3,0.1,1.9c0.4,0.1,0.8,0.2,1.2,0.3c0.2,3.8,0.3,7.6,0.5,11.4c-0.4,0.1-0.8,0.3-1.2,0.4
		c0,0.6,0,1.3,0.1,1.9c1.6-0.1,3.2-0.1,4.8-0.2c0-0.6-0.1-1.3-0.1-1.9c-0.4-0.1-0.8-0.2-1.2-0.3c0-0.8-0.1-1.7-0.1-2.5
		c-0.2-2.3-0.4-4.6-0.6-6.9c0,0,0,0,0,0c1.2,3.8,2.4,7.7,3.7,11.5c0.5,0,1-0.1,1.6-0.1c0.7-4,1.4-8,2-11.9c0,0,0,0,0,0
		c0.1,2.3,0.3,4.7,0.4,7c0.1,0.8,0.1,1.7,0.2,2.5c-0.4,0.1-0.8,0.3-1.2,0.4c0.1,0.6,0.1,1.3,0.2,1.9c1.6-0.1,3.2-0.3,4.8-0.4
		c-0.1-0.6-0.1-1.3-0.2-1.9C105.3,67.6,104.9,67.6,104.5,67.5z"/>
	<path class="st0" d="M111.4,66.5c-0.3,0.2-0.7,0.3-1.2,0.4c-0.6,0.1-1-0.1-1.4-0.6c-0.4-0.5-0.6-1.1-0.8-1.8c0,0,0,0,0-0.1
		c1.7-0.2,3.3-0.4,5-0.6c-0.1-0.6-0.2-1.1-0.2-1.7c-0.2-1.6-0.7-2.9-1.5-3.7c-0.7-0.9-1.6-1.2-2.7-1.1c-1.1,0.1-1.9,0.8-2.5,2
		c-0.5,1.2-0.7,2.7-0.5,4.4c0,0.1,0,0.3,0,0.4c0.2,1.7,0.7,3,1.5,4c0.9,1,1.9,1.4,3.1,1.3c0.7-0.1,1.3-0.3,1.8-0.6
		c0.5-0.3,0.9-0.7,1.2-1.1c-0.3-0.6-0.6-1.2-0.9-1.9C112.1,66,111.8,66.3,111.4,66.5z M107.8,62.2c0-0.7,0-1.3,0.2-1.8
		c0.2-0.5,0.5-0.7,0.9-0.8c0.4-0.1,0.8,0.1,1.1,0.5c0.3,0.4,0.4,0.9,0.5,1.6c0,0.1,0,0.2,0,0.3C109.6,62.1,108.7,62.2,107.8,62.2
		C107.8,62.3,107.8,62.3,107.8,62.2z"/>
	<path class="st0" d="M121.6,61.6c-0.3-1.6-0.9-2.8-1.7-3.7c-0.8-0.9-1.8-1.2-2.9-1c-0.4,0.1-0.8,0.2-1.1,0.5
		c-0.3,0.3-0.6,0.6-0.8,1c0,0,0,0,0,0c0-0.9,0.1-1.6,0.3-2.2c0.2-0.5,0.6-0.9,1.2-1.2c1.1-0.4,1.8-0.9,2.1-1.5
		c0.4-0.5,0.4-1.5,0.1-2.9c0,0,0,0,0-0.1c-0.5,0.1-1.1,0.2-1.6,0.3c0.1,0.4,0,0.8-0.2,1c-0.2,0.2-0.5,0.4-1,0.6
		c-1,0.5-1.8,1.5-2.2,3c-0.5,1.5-0.5,3.5-0.2,6.1c0.1,0.5,0.1,1,0.2,1.5c0.2,1.7,0.8,3,1.7,3.9c0.9,0.9,1.9,1.3,3.2,1.1
		c1.3-0.2,2.1-0.9,2.7-2.1c0.5-1.2,0.6-2.6,0.3-4.2C121.6,61.8,121.6,61.7,121.6,61.6z M119.4,64.6c-0.2,0.6-0.5,1-1.1,1.1
		c-0.6,0.1-1.1-0.1-1.4-0.7c-0.4-0.6-0.6-1.3-0.8-2.3c0-0.1,0-0.1,0-0.2c-0.1-0.9-0.1-1.6,0.1-2.2c0.2-0.6,0.5-0.9,1.1-1
		c0.6-0.1,1,0.1,1.4,0.6c0.4,0.5,0.6,1.2,0.8,2.1c0,0.1,0,0.2,0,0.2C119.5,63.2,119.5,64,119.4,64.6z"/>
	<path class="st0" d="M128.2,63.6c-0.3,0.2-0.7,0.4-1.2,0.5c-0.6,0.1-1.1,0-1.5-0.5c-0.4-0.4-0.7-1-0.9-1.8c0,0,0,0,0-0.1
		c1.6-0.3,3.3-0.7,4.9-1.1c-0.1-0.6-0.3-1.1-0.4-1.7c-0.4-1.6-0.9-2.8-1.8-3.6c-0.8-0.8-1.7-1.1-2.8-0.9c-1.1,0.2-1.9,0.9-2.3,2.2
		c-0.4,1.2-0.5,2.7-0.2,4.4c0,0.1,0.1,0.3,0.1,0.4c0.3,1.6,0.9,2.9,1.9,3.9c0.9,0.9,2,1.3,3.2,1c0.7-0.1,1.3-0.4,1.8-0.8
		c0.5-0.4,0.9-0.8,1.1-1.2c-0.3-0.6-0.7-1.2-1-1.8C128.8,63.1,128.5,63.4,128.2,63.6z M124.2,59.6c-0.1-0.7-0.1-1.3,0.1-1.8
		c0.1-0.5,0.4-0.8,0.8-0.9c0.4-0.1,0.8,0,1.1,0.4c0.3,0.3,0.5,0.9,0.7,1.5c0,0.1,0,0.2,0.1,0.3C126,59.3,125.1,59.5,124.2,59.6
		C124.2,59.7,124.2,59.6,124.2,59.6z"/>
	<path class="st0" d="M138.8,61.2c-0.6-2.4-1.3-4.7-1.9-7.1c0.4-0.2,0.7-0.4,1.1-0.6c-0.2-0.6-0.3-1.2-0.5-1.8
		c-0.4,0.1-0.8,0.2-1.1,0.3c-2.4,0.7-4.9,1.3-7.3,1.8c0.1,0.6,0.3,1.2,0.4,1.9c0.4,0,0.8,0,1.2,0c0.2,0.9,0.4,1.8,0.6,2.7
		c0.4,1.6,0.6,2.7,0.5,3.3c0,0.6-0.3,1-0.8,1.1c-0.1,0-0.2,0-0.2,0.1c0.2,0.8,0.4,1.6,0.6,2.4c0.1,0,0.2-0.1,0.4-0.1
		c1.2-0.3,2-1,2.2-2.2c0.2-1.2,0.1-2.9-0.5-5.2c-0.2-0.8-0.4-1.7-0.6-2.5c0.6-0.2,1.3-0.3,1.9-0.5c0.6,2.3,1.2,4.6,1.8,6.9
		c-0.4,0.2-0.7,0.4-1.1,0.6c0.2,0.6,0.3,1.2,0.5,1.8c1.6-0.4,3.1-0.8,4.7-1.2c-0.2-0.6-0.3-1.2-0.5-1.8
		C139.6,61.2,139.2,61.2,138.8,61.2z"/>
	<path class="st0" d="M145.6,54.3c-0.7-0.5-1.5-0.6-2.5-0.4c-0.4,0.1-0.8,0.3-1.3,0.4c-0.1-0.5-0.3-1-0.4-1.5c0.3-0.2,0.8-0.5,1-0.7
		c-0.2-0.6-0.4-1.2-0.6-1.8c-0.3,0.1-1,0.3-1.4,0.4c-0.5,0.1-1,0.3-1.5,0.4c-0.3,0.1-0.6,0.2-1,0.3c0.2,0.6,0.3,1.2,0.5,1.8
		c0.3,0,0.7,0,1.1,0c0.7,2.3,1.3,4.7,2,7c-0.3,0.2-0.6,0.4-0.9,0.6c0.2,0.6,0.3,1.2,0.5,1.8c1.4-0.4,2.8-0.8,4.2-1.2
		c0.9-0.3,1.6-0.9,1.9-1.7c0.3-0.9,0.3-1.9-0.1-3.1C146.9,55.6,146.4,54.8,145.6,54.3z M145.5,58.6c-0.1,0.3-0.3,0.6-0.7,0.7
		c-0.4,0.1-0.9,0.3-1.3,0.4c-0.3-1-0.6-2.1-0.9-3.1c0.4-0.1,0.8-0.3,1.3-0.4c0.4-0.1,0.7-0.1,1,0.2c0.3,0.2,0.5,0.6,0.6,1.1
		C145.6,57.8,145.6,58.2,145.5,58.6z"/>
	<path class="st0" d="M91.5,18.6c4.1,1,5.3,1.3,7.2,2.8c3.7,2.8,6.2,5.1,8.5,8.8c0.1-0.1,0-0.2-0.1-0.4c-0.7-1.3-1.6-2.6-2.5-3.7
		c-0.6-0.7-1.7-1.5-2.3-2.1c-0.8-0.8-1.3-2.1-2.4-2.7c-2.9-1.4-5.5-2.5-9.1-3C91.1,18.5,91.2,18.6,91.5,18.6z"/>
	<path class="st0" d="M65.2,17.4c4.6-3,10-4.7,15.8-5.1c0.9-0.1,1-0.2,0.2-0.1c-7.3,0.2-11.3,1.5-16.2,5.1
		C64.4,17.7,64.5,17.8,65.2,17.4z"/>
	<path class="st0" d="M167.6,53.1l-1.4-1.4c-4.5-4.5-9-9.3-13.2-14.1c0.8-3.8,1.4-7.7,2-11.6l0.2-1.5l-1.5,0.4
		c-6.5,1.7-13.1,3-19.7,4c-0.5,0.1-0.9,0.4-1.2,0.8c-0.3,0.4-0.3,0.9-0.2,1.4l2.8,9.7c-2.6,0.7-5.2,1.4-7.8,2
		c-0.2-8.3-2.8-16.2-7.4-23.1l-0.6-1l-0.9,0.8c-1.7,1.6-3.3,2.5-4.6,2.6c-2.2,0.1-3.1-1.2-3.5-2.1c-0.2-0.4-0.5-0.6-0.9-0.7
		c-0.4-0.1-0.8,0-1.1,0.2c-0.8,0.6-2.7,1.9-4,0.8c-1.4-1.1-1.2-2.8-1.1-3.5c0.1-0.4-0.1-0.9-0.4-1.1c-0.4-0.2-0.8-0.3-1.2-0.1
		c-0.7,0.4-2.9,1.5-4.1,0.1c-0.7-0.9-0.6-2.7-0.2-4c0.1-0.3,0-0.7-0.2-1L97,10.3l-0.5,0c-0.5,0-2.1-0.1-3-1.5
		c-1.2-1.8,0.3-4.8,1-6.1l0.7-1.2l-1.3-0.3C90.5,0.4,87.1,0,83.7,0c-23.8,0-43.2,19-44,42.6c-2.5-0.6-5-1.2-7.5-1.9l2.4-8.2
		c0,0,0,0,0,0L35,31c0.1-0.5,0.1-1-0.2-1.4c-0.3-0.4-0.7-0.7-1.2-0.8c-6.6-0.9-13.2-2.3-19.7-4l-1.5-0.4l0.2,1.5
		c0.5,3.8,1.2,7.7,2,11.6C10.4,42.4,6,47.1,1.4,51.6L0,53.1l2,0.3c4.1,0.5,8.3,1,12.5,1.2C13.3,58.4,11,66.2,10.7,67
		c-0.2,0.5,0.1,1.1,0.6,1.2c14.7,5.1,29.9,8.6,45.3,10.5c7.5,5.8,16.8,9.3,27,9.3c10.1,0,19.5-3.5,26.9-9.2
		c15.5-1.9,30.8-5.4,45.7-10.5c0.5-0.2,0.8-0.7,0.6-1.2c-0.1-0.5-1.8-6-3.8-12.5c4.2-0.3,8.4-0.7,12.5-1.2L167.6,53.1z M135.4,33.4
		l-0.3-1.2c3.1,2,6.3,3.8,9.5,5.6c-2.4,0.8-4.8,1.6-7.2,2.3L135.4,33.4z M125.6,42.7c-0.6-0.1-1.1-0.2-1.7,0c-1.6,0.6-4.4-0.4-6.3,0
		c-1.9,0.4-3.9,1.3-3.9,1.3s4.6-1.4,6.4-0.6c0.9,0.4,1.9,0.4,2.8,0.4c-3.4,0.7-6.8,1.3-10.3,1.9c0.1-0.8,0.1-1.6,0.1-2.4
		c0-1.7-0.5-3.4-0.5-5.1c0-1.7-0.3-3.1-0.8-4.4c0.3,0,0.6-0.1,0.9-0.1c1.7-0.2,3.4-0.4,5.1-0.6c1,2.4,1.3,3.9,1.3,3.9
		c-0.2-1.1,0.4-1.5,0-2.5c-0.2-0.5-0.4-1.1-0.7-1.6c2.1-0.3,4.1-0.7,5.7-1C124.9,35.4,125.5,39,125.6,42.7z M99.5,39.3
		c0.9-0.2,2-0.3,3-0.4c0.8,0,1.4-0.2,1.9-0.5c0.2,0.9,0.3,1.8,0.3,2.2c-0.2,1-0.2,3-0.3,3.7c-0.1,0.4-0.6,1.4-0.9,2.5
		c-1.3,0.1-2.5,0.2-3.8,0.3c0.3-1.2,0.4-2.4,0.4-3.6C100,42.1,99.8,40.7,99.5,39.3z M104.4,45.3c0.6-0.6,0.6-2.3,0.6-2.9
		c0-0.5,0.4-1.8,0.3-2.4c-0.1-0.3-0.2-1-0.4-1.8c1-0.7,1.5-1.6,1.6-2.1c0.2-0.7,1.1-1.7,4.8-2.3c0.3,0.7,0.5,1.4,0.6,2.2
		c0.4,2,0,5,0,7.2c0,0.7,0.2,1.6,0.2,2.5c-2.7,0.4-5.4,0.8-8.1,1.1C104,46.1,104.1,45.6,104.4,45.3z M114.4,24.9
		c0.9,0,2.6-0.2,3.5-1c0.7-0.5,1.2-1.2,1.5-1.8c1.6,2.7,2.9,5.5,3.9,8.4c-1.1,0.4-3.4,1.2-5.7,1.4c-1.1-2.5-2.4-4.8-4.1-7
		C113.9,24.8,114.1,24.9,114.4,24.9z M85.8,4.8c0.5-1.1,1.4-2.2,1.8-2.6c1.5,0.1,3,0.4,4.6,0.7c0,0,0,0.1,0,0.1
		c-0.6,0.5-1.3,1.2-1.7,2.2c-0.6,1.4-0.7,3.3,0.4,5.1c2.5,4.2,4.1,2.4,4.1,2.4s-0.2,1.6,0,3.1c0,0.5,0.5,2.6,2.5,3s3.1,0,3.1,0
		s1.4,4,3.4,4.4c2,0.4,4.8-0.7,4.8-0.7s1.6,1.2,3.3,1.9c2.4,2.8,3.9,5.4,4.9,7.5c-1.6,0.2-3.9,0.5-5.9,0.9c-0.6-1.2-1.3-2.4-2.1-3.5
		c-0.1-0.2-0.1-0.4-0.4-0.5c0.7,1.5,1.5,2.7,2.2,4.1c-2,0.4-3.8,1-4.4,1.6c-1,0.9-0.7,2.3-1.7,3.1c-0.1-0.6-0.2-1.2-0.3-1.6
		c-0.2-0.8-0.7-1.7-1.2-2c-0.5-0.4-0.8-0.7-0.7-1.4s0.4-1.5-0.5-2c-0.9-0.5-2.6-0.9-2.9-1.3c-0.3-0.4-0.2-1.9-2.9-3.1
		c0,0,1.9,1,2.2,1.8c0.3,0.8-0.3,2,0.9,2.3c1.2,0.3,2.7,1.1,2.8,1.7c0.1,0.7-1.1,1.8,0,2.1c1.1,0.3,1.6,1.4,1.6,1.4s0.3,1.1,0.6,2.4
		c-0.4,0.2-1,0.4-1.7,0.4c-1.2,0.1-2.3,0.2-3.3,0.4c-1.7-5.4-6.1-9.5-11.6-10.9c-0.2-0.1-0.4-0.1-0.6-0.1c0-0.1,0-0.1,0-0.2
		c0.1-1.6-0.3-4.6-1.3-5.6s-2.5-1.7-1.9-3.5c0.4-1.2,1.7-1,2.7-1.7c0.2,0,0.5,0,0.7,0c1,0,2,0.1,3,0.2c-1-0.3-2.1-0.5-3.2-0.6
		c0.4-0.4,0.6-1,0.7-2c0.4-3.8,0.7-6,0-7.1S85.2,6.3,85.8,4.8z M91.5,47.5c0.5-1.1,0.5-2.1,0.5-3.5c0-0.8,0.2-1.8,0-2.5
		c0.8-0.1,1.9-0.4,2.8-0.6c0.2,0.9,0.3,1.8,0.3,2.7c0.1,1.4-0.1,2.7-0.4,3.8c-1.1,0.1-2.3,0.1-3.4,0.2
		C91.5,47.6,91.5,47.5,91.5,47.5z M91.1,45.9c-0.1,0.4-0.2,1-0.3,1.5c-0.1-0.1-0.2-0.1-0.3-0.1c-0.2-0.1-1.4-1-2.4-1.5
		c0.3-0.6,0.4-1.2,0.4-1.9c0-0.5-0.1-1-0.3-1.5c0.1,0,2.1-0.7,3.1-0.7c0,0,0.1,0,0.1,0c0.1,0.6,0.2,1.3,0.3,1.9
		C91.8,44.3,91.3,45.2,91.1,45.9z M92,34.3c1.4,1.7,2.3,3.9,2.8,6.3c-0.8,0.3-1.9,0.6-2.8,0.7c-0.3-0.9-0.7-1.8-1.2-2.5
		c0.3,0.8,0.5,1.7,0.6,2.6c-0.1,0-0.1,0-0.2,0c-0.9,0-2.9,0.9-3,1c-0.1-0.2-0.2-0.5-0.2-0.7c-0.3-0.6-0.6-0.9-1-1.3
		c0.5,0.5,0.7,1.3,0.9,2.2c0.1,0.4,0.4,0.5,0.4,1c0,0.7-0.1,1.6-0.2,2.2c-0.5-0.3-1-0.5-1.2-0.5c-0.4,0.1-1.5-0.7-2.2-1.1
		c-0.4-0.3-0.6-0.3-0.6-0.3s1.8,1.5,2.5,1.7c0.8,0.2,1.3,0.4,2.1,1c0.7,0.4,1.3,0.9,1.7,1.2c-1.5,0.1-3,0.1-4.4,0.1
		c0.6-0.3,1.1-0.5,1.5-1c0.1-0.1,0.1-0.1,0-0.2c-0.4,0.4-1,0.8-2.1,0.9c-0.2,0-0.6,0.2-0.9,0.3c-0.7,0-1.4,0-2.1,0
		c-0.2-0.1-0.5-0.3-0.7-0.4c0.4-0.8,1.1-1.8,1.5-2.3c0.1-0.2,0.1-0.5,0.1-0.5s-1.2,1.6-1.8,2.7c-0.1-0.1-0.2-0.1-0.4-0.2
		c-1.2-0.6-2.1-1.6-2.3-2.8c-0.1,0.1-0.2,0.2-0.1,0.4c0.2,0.9,0.8,2,1.6,2.3c0.4,0.1,0.7,0.4,1,0.6c0,0,0,0.1-0.1,0.1
		c-1.5,0-3.1,0-4.6-0.1c-0.5-0.9-1-1.8-1.3-2.7c0.2,0,0.4-0.1,0.5-0.1c0.4-0.1,0.7-0.7,0.8-0.8c0.2-0.1,1.8,0,2.1,0
		c0.3,0,1.3,0.2,1.7,0.2c0.5-0.1,1.2-0.3,1.4-0.5s0.1-0.6,1-0.3c0,0-0.6-0.5-1.1,0C81.5,44,81.4,44,80.6,44c-0.8,0-1.2-0.2-1.7-0.1
		c-0.5,0-2.8-0.8-2.7,0.1c0,0.5-0.4,0.6-0.9,0.7C75.2,44.1,75,43.5,75,43c0,0.3,0,0.5,0,0.8c0,0.3,0,0.6,0.1,0.9c-0.3,0-0.5,0-0.5,0
		l-2.4-0.6c0-0.2,0-0.3,0-0.5c0-2.3,0-4.1,1-5.6c0.4-0.6,0.8-1.2,1.1-1.8c0.2,0.1,0.4,0.1,0.5,0.3c1.1,0.8,2.1,2.1,2.6,2.2
		c0.6,0.1,1.7,0.9,2.9,1.7c-0.5,0.5-0.9,1.1-1.2,1.8c0.4-0.5,0.9-1.1,1.5-1.5c1,0.8,1.9,1.5,2.4,1.9c0.2,0.2,0.4,0.2,0.4,0.2
		s-1.2-1.1-2.5-2.3c1.1-0.8,2.4-1.4,3.5-1.3c-1.4-0.2-2.8,0.2-3.8,1.1c-1.1-1-2.3-2-3-2.3c0,0-0.1-0.1-0.1-0.1
		c1-0.7,2.2-1.2,3.4-1.5c0.9-0.2,1.3-0.6,2.2-0.6c0.5-0.1,1-0.1,1.5-0.1c-0.1,1.9-0.4,5.9-0.4,5.9s0.1-0.2,0.1-0.7
		c0.2-1.3,0.5-3.8,0.6-5.3c1.2,0.1,2.3,0.3,3,0.5c-0.8-0.5-1.7-0.8-2.6-1c-0.1,0-0.2,0-0.4,0c0-0.2,0-0.4,0-0.5c0-0.7,1.7-5.3,2-7.1
		c0.2,0,0.3,0.1,0.5,0.1c5.1,1.5,9.2,5.9,10.8,11.1c-1.3,0.3-2.1,0.7-2.3,1.1c0,0.1-0.2,0.2-0.4,0.3C95,37.9,93.7,35.9,92,34.3z
		 M75.9,47.7c-1.1,0-2.2-0.1-3.3-0.2c0-0.1-0.1-0.2-0.1-0.3c-0.2-0.9-0.3-1.8-0.3-2.7c0.3,0.1,0.4,0.2,0.4,0.2s1.2,0,1.7,0.3
		c0.2,0.1,0.5,0.1,0.8,0.1C75.2,46,75.5,46.9,75.9,47.7z M71.2,43.9c-1.2-0.2-4.2-0.8-4.6-2.3c0,0,0.1,1.7,2.5,2
		c0.9,0.1,1.6,0.3,2.1,0.4c0,1.2,0.2,2.3,0.6,3.3c-1.6-0.1-3.2-0.2-4.8-0.4c-0.1-1.2-0.2-2.4-0.3-3.5c-0.1,0.5-0.1,1-0.1,1.5
		c0,0.7,0,1.4,0.1,2c-1.9-0.2-3.8-0.4-5.6-0.6c-0.1-0.2-0.2-0.4-0.3-0.5c-1-1.6,0.3-1.2-0.1-1.9c-0.1-0.3-0.1-0.9-0.1-1.7
		c1.5-0.9,2.4-1.6,2.4-1.6s-1,0.6-2.3,1.3c0.1-1.1,0.2-2.3,0.1-2.8c-0.1-1,0.7-1.9,1.5-3.2c0.8-1.3,0.7-2.1,0.9-3.1
		c0.3-1,0.8-0.4,1.6-2.7c0.2-0.7,1-1.5,1.9-2.3c0.3,0.4,0.5,0.8,0.7,1c0.6,0.7,1.6,1.8,2.4,2.6c-0.1,0.2-0.3,0.3-0.4,0.3
		c-0.6,0.4-2.3,1.1-2.7,4.2c0,0,0.8-2.9,1.9-3.1c0.6-0.1,1-0.6,1.3-1.2c0.4,0.4,0.7,0.7,0.9,0.8c0.2,0.1,0.9,0.8,1.4,1.7
		c0.2,0.4,0.1,1.1,0.5,1.6c0.2,0.3,0.5,0.4,0.8,0.5C73,37,72.4,38,72,39.1c-0.2,0.5-0.6,1-0.5,1.6c0.1,1-0.4,2-0.4,3
		C71.1,43.8,71.1,43.8,71.2,43.9z M52.8,43.2c0,0.2,0,0.5,0,0.7c-2.2-0.1-4.3,0.1-5.7,0.3c-0.1,0-0.2,0-0.3-0.1
		c0-0.4-0.1-0.8-0.1-1.2c0-1.3-0.2-3.5,0-4.8c0.4-3.9,1.8-6.5,3.5-9.4c2.3,1.2,3.4,1.7,6.3,1.9c-1.6,2.5-2.8,5.8-3.4,8.7
		C52.8,40.9,52.8,41.7,52.8,43.2z M53,45.3c-1.4-0.2-2.8-0.5-4.2-0.8c0.8,0,2.1-0.1,4.1-0.1C52.9,44.8,52.9,45,53,45.3z M54.2,37
		c1.1-3.1,1.4-4.4,2.3-6.2c0.3,0,0.7,0,1.1,0.1c0,0-0.4,0-1-0.2c0-0.1,0.1-0.1,0.1-0.2c0,0.1-0.1,0.1-0.1,0.2
		c-1.5-0.3-4.2-0.8-5.9-2c-0.1-0.1-0.2-0.1-0.3-0.2c0.3-0.6,0.7-1.2,1-1.8c1.3-2.3,2.9-4.8,4.8-7c0.2,0.2,0.3,0.3,0.5,0.4
		c1.5,0.8,2.5,3.7,4,4.8c0.5,0.4,1.1,0.8,1.6,1.1c-1,1.4-1.9,2.9-2.7,4.4c0.9-1.4,2-2.8,3.1-4.1c0.8,0.5,1.5,0.8,1.5,0.8
		s-0.6-0.4-1.4-1c0.5-0.6,1.1-1.2,1.7-1.7c0.4,0.7,1.1,1.9,1.7,2.9c-0.8,0.5-1.4,1-1.4,1s-0.8,2.1-1.7,2.9c-1,0.8-1,3-1.7,4.2
		S60.1,41.2,60,42c0,0.1,0,0.2,0,0.2c-2,0.9-4.5,1.9-6.3,1.8c-0.1,0-0.1,0-0.2,0c0-0.2,0-0.5,0-0.7C53.5,41.1,53.5,38.9,54.2,37z
		 M75.5,22.2c0.8,1.2,2,1.6,2.4,2.6c0.1,0.2,0.2,0.3,0.3,0.5c-0.3,0.2-0.8,0.4-1.4,0.5c-0.7,0.1-1.5,0.3-1.9,1
		c-0.4,0.7-0.9,0.9-1.5,1c-0.6,0.2-1.9,1.4-1.9,1.4s-0.6,0.9-1.2,1.7c-0.7-0.6-2-2-2.3-2.4c-0.1-0.1-0.4-0.6-0.9-1.1
		c2-1.6,4.4-3,4.4-3s-2.3,1-3,1.5c-0.3,0.2-1,0.7-1.7,1.1c-0.7-0.9-1.7-2-2.2-2.6c2.9-2.7,6.3-4.8,10.3-6.2
		C75,19.2,74.9,21.3,75.5,22.2z M84,21.8c0.6,0.6,1.9,1.3,2.5,2.8c-0.6-0.3-1.9-0.5-4.6-0.3c-2.7,0.3-3.1,0.4-3.4,0.7c0,0,0,0,0,0
		c-1.1-1.7-2.1-2-2.7-3.1c-0.6-1.2-0.7-2.9-0.8-3.8c0.6-0.2,1.3-0.4,1.9-0.6c2.1-0.6,4.6-0.8,7.1-0.9c-0.6,0.2-1,0.4-1,1.5
		C83.1,20.1,83,20.8,84,21.8z M84.4,27.2c0.1,0,0.2,0,0.3,0c0.6,0.1,1.3,0.1,1.9,0.3c0,0.2-0.1,0.3-0.1,0.5
		c-1.1,4.1-1.8,5.5-1.9,7.2c-0.4,0-0.7,0.1-1.1,0.1c-0.9,0-1.7,0.5-2.9,0.6c-1.5,0.1-2.5,0.9-3.4,1.9c-0.8-0.5-1.4-1.4-2.2-1.8
		c-0.2-0.1-0.4-0.1-0.5-0.2c1.1-1.7,2.4-3,5.5-3.7c1.8-0.4,3.4-0.9,5.3-0.9c-0.6-0.1-1.1-0.1-1.7-0.1c-2.9,0-5.5,1-7.6,2.6
		c-0.8,0.6-1.4,1.3-2,2c-0.3-0.1-0.5-0.2-0.8-0.4C73,35,73.1,34.4,72.9,34c-0.9-1.4-1.9-2.7-2.2-2.8c-0.1,0-0.2-0.1-0.3-0.2
		c0.1-0.2,0.3-0.4,0.4-0.5c0.6-0.3,1-1.5,2.5-1.7c1.6-0.3,2.3-2.2,3.8-2.3c0.5,0,0.9-0.2,1.4-0.4c0.4,0.8,0.7,2,0.5,4.2
		c0,0,1-2.1-0.2-4.4c0.8-0.5,1.5-1,2.1-0.9c1,0.2,3.7-0.6,5.5-0.1c0.2,0.7,0.3,1.5,0.1,2.7c-0.3-0.1-0.6-0.1-1-0.2
		C85.2,27.2,84.8,27.2,84.4,27.2C84.2,27.2,84.2,27.2,84.4,27.2z M60,42.6c0.1,0.7,0.3,1.5,0,1.9c-0.2,0.3,0.1,1,0.3,1.9
		c-2.3-0.3-4.5-0.6-6.8-1c0-0.3-0.1-0.6-0.1-1C56.1,44.4,58.4,43.5,60,42.6z M96.2,43.7c0-1-0.1-2.1-0.4-3c0.3-0.1,0.6-0.2,0.6-0.3
		c0.1-0.2,0.9-0.5,2.1-0.8c0.3,1.3,0.5,2.7,0.5,4c0,1.3-0.2,2.5-0.4,3.7c-1,0.1-2,0.2-3,0.2C96,46.3,96.2,45,96.2,43.7z M75.7,2.8
		c0.3,0.6,1.1,1.8,1.8,2.5C77.8,5.7,78,6.4,78,6.8c-0.4,0-0.7,0.1-1.1,0.1c-1.9,0.3-3.9,0.2-5.7,0.7c-1.5,0.5-2.9,1.5-4.4,2.1
		c-1.7,0.8-3.4,1.7-5.1,2.6c-0.6,0.4-0.8,0.5-0.4,0.3c1.2-0.6,2.2-0.9,3.5-1.4c2.2-0.9,3.9-2.2,6.6-3c1.8-0.5,4.1-0.8,6.5-1.1L78,10
		c0,0,0.4-1.5,0.5-2.8C79.3,7.1,80.1,7,81,6.8c0.2,0,0.4-0.2,0.2-0.2c-0.9,0-1.8,0.1-2.7,0.1c0-0.5-0.1-1-0.2-1.3
		c-1-1.8-1.8-2.1-1.9-2.8C78.7,2.2,81.1,2,83.7,2c0.7,0,1.3,0,2,0.1c-0.2,0.4-1.9,3-1,3.9c1,1,2,2,2,3s0,3,0,3s0,3-1,4
		c0,0-0.1,0.1-0.1,0.1c-0.6,0-1.2-0.1-1.9-0.1c-3.2,0-5.7,0.8-8.6,1.9c0-0.2,0-0.3,0-0.3s0,0.1,0,0.3c-1.2,0.4-2.5,0.9-3.9,1.4
		c-3.5,1.2-6.3,3.6-8.6,6.6c-1.2-0.9-2.5-2.2-2.8-3.3c-0.5-1.8-2.2-3.1-2.9-3.5c0.6-0.6,1.2-1.2,1.9-1.8c1.5-1.3,0.4-0.7-0.5,0.1
		c-0.5,0.5-1.1,0.9-1.6,1.4c-0.5-0.6-1.5-2.2-1.5-2.2s0.1,1.6,0.9,2.7c-2.6,2.5-4.7,5.4-6.4,8.6c-1.5-0.9-2.7-1.3-4.2-1.2
		C50.9,14.5,62.2,5.4,75.7,2.8z M45.1,27.5c0.8,0,2.4,0,4.3,0.9c-1.3,2.5-2.2,5.1-2.8,7.9c-0.4,2.1-0.7,4.2-0.7,6.4
		c0,0.5,0,0.9,0.1,1.3c-1.4-0.3-2.9-0.6-4.3-0.9C41.8,37.6,43,32.3,45.1,27.5z M32.2,33.5l-1.9,6.6c-2.4-0.7-4.8-1.5-7.2-2.3
		c3.2-1.8,6.4-3.7,9.5-5.7L32.2,33.5z M4.3,51.6c4.2-4.2,8.3-8.7,12.2-13.1l0.3-0.4l-0.1-0.5c-0.7-3.5-1.3-7-1.8-10.4
		c5.5,1.4,11.1,2.5,16.7,3.3c-3.6,2.3-7.3,4.5-11.1,6.5c-0.1,0-0.1,0.1-0.1,0.1c0,0-0.1,0-0.1,0c-0.2,0.1-0.4,0.3-0.5,0.6
		c0,0.1-0.1,0.2-0.1,0.2c0,0,0,0,0,0c-0.7,2.1-1.3,4.3-2,6.4c-0.1,0.5-0.3,0.9-0.4,1.4c-0.7,2.2-1.4,4.5-2.1,6.7
		C11.5,52.4,7.9,52.1,4.3,51.6z M72.3,83.3c-0.3,0.2-0.4,0.6-0.4,1.1c-4-1.2-7.7-2.9-11.1-5.1c2.4,0.2,4.7,0.4,7.1,0.6
		c1.8,1,3.7,1.6,5.6,2.1C73.4,82.5,72.9,82.9,72.3,83.3z M70.6,80c1,0.1,2,0.1,3,0.2c0,0.4-0.1,0.7-0.1,1
		C72.5,80.8,71.6,80.4,70.6,80z M83.7,86c-3.6,0-7.1-0.5-10.5-1.3c0-0.6,0.1-1.1,0.1-1.1s0.4-0.9,0.6-1.5c0.4,0.1,0.8,0.2,1.3,0.3
		c2.3,0.4,5.3,1.1,7.8,0.9c0.6,0,0.7-0.2,0.1-0.4c-0.6-0.2-1.4-0.4-3.1-0.4c-2-0.1-4-0.4-5.9-1c0-0.3,0-0.7-0.1-1.2
		c3.3,0.1,6.5,0.2,9.8,0.2c4.5,0,8.9-0.1,13.4-0.4c0.3,1.3,0.4,2.7,0.4,3.6C93.3,85.1,88.6,86,83.7,86z M98.3,83.4
		c-0.1-1.2-0.2-2.8-0.4-3.4c0,0,0,0,0,0c2.9-0.2,5.7-0.4,8.6-0.7C103.9,80.9,101.2,82.3,98.3,83.4z M154.7,66.7
		c-45.7,15.6-96,15.6-141.8,0c2.7-9.1,5.5-18.3,8.3-27.3c40.4,14,84.7,14,125.1,0C149.2,48.4,152,57.6,154.7,66.7z M152.5,52.6
		c-1.6-5.3-3.3-10.9-4.5-14.6c0,0,0,0,0-0.1c0-0.1,0-0.1-0.1-0.2c-0.1-0.3-0.3-0.5-0.5-0.6c0,0-0.1,0-0.1,0c-0.1,0-0.1-0.1-0.2-0.1
		c-3.8-2-7.5-4.2-11.1-6.5c5.6-0.8,11.2-2,16.7-3.3c-0.5,3.5-1.1,7-1.8,10.4l-0.1,0.5l0.3,0.4c3.9,4.5,8,8.9,12.2,13.1
		C159.7,52.1,156.1,52.4,152.5,52.6z"/>
</g>
</svg>
