<?xml version="1.0" encoding="utf-8"?>
<!-- Generator: Adobe Illustrator 18.1.1, SVG Export Plug-In . SVG Version: 6.00 Build 0)  -->
<svg version="1.1" id="Capa_1" xmlns="http://www.w3.org/2000/svg" xmlns:xlink="http://www.w3.org/1999/xlink" x="0px" y="0px"
	 viewBox="41.3 12.6 1225.3 990.7" enable-background="new 41.3 12.6 1225.3 990.7" xml:space="preserve">
<g>
	<path fill="#C28B65" d="M1093.8,210.4H965.9v270c0,136.2-110.8,247-247,247H527.1c26.8,60.6,87.3,103,157.9,103h203.5l221.9,172.8
		V829.7c87.6-8.4,156.2-82.2,156.2-172V383.3C1266.6,287.8,1189.2,210.4,1093.8,210.4z"/>
	<path fill="#C28B65" d="M899.7,480.5v-270v-17c0-99.8-80.9-180.8-180.8-180.8H222.1c-99.8,0-180.8,80.9-180.8,180.8v287
		c0,94,71.7,171.1,163.3,179.9V842l232.2-180.8h75.8h206.3C818.7,661.2,899.7,580.3,899.7,480.5z M237.2,204.5h461.6v72.5H237.2
		V204.5z M237.2,409.4v-72.5h325v72.5H237.2z"/>
</g>
</svg>
