<?xml version="1.0" encoding="utf-8"?>
<!-- Generator: Adobe Illustrator 18.1.1, SVG Export Plug-In . SVG Version: 6.00 Build 0)  -->
<svg version="1.1" id="Capa_1" xmlns="http://www.w3.org/2000/svg" xmlns:xlink="http://www.w3.org/1999/xlink" x="0px" y="0px"
	 viewBox="-1289 218.3 731.2 616" enable-background="new -1289 218.3 731.2 616" xml:space="preserve">
<g>
	<rect x="0" y="0" fill="#61A8DE" width="1000" height="1000"/>
	<path fill="#FFFFFF" d="M787.4,220.7L118.7,481.3c-21.7,8.4-20.3,39.5,1.9,46.1l169.9,50.2L354,778.8c6.6,21,33.3,27.4,48.7,11.6
		l87.9-89.7l172.4,126.5c21.1,15.5,51.1,4,56.5-21.6l114.2-545.8C839.2,233.1,812.9,210.8,787.4,220.7z M703.6,341.9L393,616.6
		c-3.1,2.7-5.1,6.5-5.5,10.6l-12,106.3c-0.4,3.5-5.2,3.9-6.3,0.6L320,575.6c-2.3-7.3,0.7-15.1,7.1-19.1l366.8-227.5
		C702.4,323.7,711,335.3,703.6,341.9z"/>
</g>
<path fill="#C28B65" d="M-604.7,220.7l-668.7,260.6c-21.7,8.4-20.3,39.5,1.9,46.1l169.9,50.2l63.4,201.2c6.6,21,33.3,27.4,48.7,11.6
	l87.9-89.7l172.4,126.5c21.1,15.5,51.1,4,56.5-21.6l114.2-545.8C-553,233.1-579.3,210.8-604.7,220.7z M-688.6,341.9l-310.6,274.7
	c-3.1,2.7-5.1,6.5-5.5,10.6l-12,106.3c-0.4,3.5-5.2,3.9-6.3,0.6l-49.2-158.5c-2.3-7.3,0.7-15.1,7.1-19.1l366.8-227.5
	C-689.8,323.7-681.1,335.3-688.6,341.9z"/>
</svg>
