<?xml version="1.0" encoding="utf-8"?>
<!-- Generator: Adobe Illustrator 18.1.1, SVG Export Plug-In . SVG Version: 6.00 Build 0)  -->
<svg version="1.1" id="Layer_1" xmlns="http://www.w3.org/2000/svg" xmlns:xlink="http://www.w3.org/1999/xlink" x="0px" y="0px"
	 viewBox="0 0 75.2 86.7" enable-background="new 0 0 75.2 86.7" xml:space="preserve">
<g>
	<g>
		<path fill="#4c4c4c" d="M37.6,47.5c-10.6,0-19.1-10.7-19.1-23.8S27,0,37.6,0s19.1,10.7,19.1,23.8S48.1,47.5,37.6,47.5z M37.6,5
			c-7.8,0-14.1,8.4-14.1,18.8s6.3,18.8,14.1,18.8s14.1-8.4,14.1-18.8S45.4,5,37.6,5z"/>
	</g>
	<g>
		<path fill="#4c4c4c" d="M37.6,86.7c-12.2,0-24.4-3-35.1-8.7c-1.9-1-2.9-3.3-2.3-5.4c3-10.8,8.7-20.1,15.9-26.3
			c0.9-0.7,2-1.1,3.1-1.1c1.7,0,3.2,0.8,4.1,2.2c3.2,5.1,8.6,8.1,14.3,8.1s11.1-3,14.3-8.1c0.9-1.4,2.4-2.2,4.1-2.2
			c1.1,0,2.2,0.4,3.1,1.1C66.3,52.6,72,61.9,75,72.7c0.6,2.1-0.4,4.4-2.3,5.4C61.9,83.8,49.8,86.7,37.6,86.7z M5.1,73.8
			c9.9,5.2,21.2,8,32.5,8s22.6-2.8,32.5-8c-2.8-9.6-7.8-17.9-14.1-23.4c-4.2,6.4-11,10.2-18.4,10.2c-7.4,0-14.3-3.8-18.4-10.2
			C12.8,55.8,7.8,64.1,5.1,73.8z"/>
	</g>
</g>
</svg>
