<?xml version="1.0" encoding="utf-8"?>
<!-- Generator: Adobe Illustrator 18.1.1, SVG Export Plug-In . SVG Version: 6.00 Build 0)  -->
<svg version="1.1" id="Capa_1" xmlns="http://www.w3.org/2000/svg" xmlns:xlink="http://www.w3.org/1999/xlink" x="0px" y="0px"
	 viewBox="-1575.8 -946.9 543.6 598.3" enable-background="new -1575.8 -946.9 543.6 598.3" xml:space="preserve">
<path fill="#FFFFFF" d="M-1303.8-875.5c0.2,0,0.4,0,0.6,0C-1296-875.3-1228.6-873.4-1303.8-875.5z"/>
<path fill="#FFFFFF" d="M-1303.2-875.5c-0.2,0-0.4,0-0.6,0C-1303.9-875.5-1303.7-875.5-1303.2-875.5z"/>
<path fill="#C28B65" d="M-1045.5-828.6c-10.7-42.1-65.3-94.5-108.8-104.2c-99.3-18.9-200-18.9-299.4,0
	c-43.4,9.7-98.1,62.1-108.8,104.2c-17.8,81.5-17.8,164.2,0,245.7c10.7,42.1,65.3,94.5,108.8,104.2c0,0,0,0,0,0
	c1.9,0.4,3.3,2.1,3.3,4v119.4c0,6,7.3,8.9,11.4,4.6l56.7-58.2c0,0,45.2-46.4,53.3-54.7c0.8-0.8,1.9-1.3,3-1.2
	c57.3,1.6,114.6-3,171.5-13.9c43.4-9.7,98.1-62.1,108.8-104.2C-1027.7-664.4-1027.7-747.1-1045.5-828.6z M-1150.9-582.5
	c-0.4,1.9-1,3.7-1.9,5.6c-4.3,9.2-9.7,17.7-16.2,25c-0.8,0.9-1.7,1.8-2.5,2.7c-1.7,1.8-3.5,3.5-5.4,5.1s-3.8,3.2-5.8,4.7
	c-3,2.2-6.3,4.2-9.7,6.1c-1.9,1-4,1.8-6.1,2.5c-3.6,1.1-7.3,1.9-11,3c-1.7-0.5-3.3-1-4.9-1.4c-1.6-0.5-3.2-0.9-4.8-1.3
	c-3.2-0.9-6.2-1.9-9.2-3.1c-23-9.5-45.3-20.1-66.5-32.2c-1.8-1-3.5-2-5.3-3.1c-3.5-2.1-7-4.2-10.4-6.3c-5.2-3.2-10.3-6.6-15.3-10
	c-8.4-5.8-16.5-11.9-24.5-18.3c-1.6-1.3-3.2-2.6-4.7-3.9c-12.5-10.5-24.4-22-35.6-34.6c-4.8-5.4-9.3-10.8-13.7-16.5
	c-1.5-1.9-2.9-3.8-4.3-5.6c-2.8-3.8-5.6-7.6-8.3-11.5c-1.3-1.9-2.7-3.9-4-5.9c-3.9-5.9-7.7-11.9-11.4-18c-1.2-2-2.4-4.1-3.6-6.1
	c-5.9-10.2-11.5-20.7-16.7-31.4c-5-10.1-9.5-20.5-13.8-30.9c-2.6-6.3-5.2-12.5-7.7-18.8c-0.4-1-0.7-1.9-1-2.9c-0.7-2.4-1-4.8-1-7.2
	c-0.1-3.8,0.7-7.6,1.9-11.3c0.3-0.9,0.7-1.8,1-2.7c0.4-0.9,0.8-1.8,1.2-2.7c0.2-0.4,0.4-0.9,0.7-1.3c0.9-1.8,1.9-3.5,3-5.1
	c0.3-0.4,0.5-0.8,0.8-1.2c1.9-2.9,4-5.6,6.1-8.1c9.1-10.8,20.8-19,33.4-25.1c1.9-0.9,3.7-1.5,5.5-1.9c2.4-0.5,4.8-0.6,7.2-0.2
	c5.2,0.8,10.1,3.7,14.1,8.5c6.8,7.9,13.4,16,19.6,24.4c0.9,1.2,1.8,2.4,2.6,3.6c1.7,2.4,3.5,4.8,5.1,7.3c5,7.4,9.8,15,14.1,22.8
	c7.1,12.9,5.2,28.7-7.8,37.5c-2.4,1.6-4.6,3.4-6.7,5.2c-0.7,0.6-1.5,1.2-2.2,1.8c-1.6,1.3-3.2,2.6-4.5,4.2c-0.8,0.9-1.6,1.9-2.2,2.9
	c-2.8,4.6-3.3,9.9-2,14.9c0.2,0.7,0.4,1.4,0.7,2.2c2,5.5,4.2,10.8,6.5,16c2.3,5.2,4.9,10.2,7.6,15c2.7,4.8,5.6,9.5,8.8,13.9
	c1.6,2.2,3.2,4.4,4.8,6.5c5,6.4,10.5,12.4,16.5,17.9c1,0.9,2,1.8,3,2.7c2.1,1.8,4.2,3.5,6.4,5.2c4.4,3.3,9,6.5,13.8,9.4
	c6.1,3.6,12.5,6.9,19.4,9.7c0.9,0.4,1.8,0.7,2.6,1.1c0.4,0.2,0.9,0.4,1.3,0.6c0.9,0.4,1.8,0.7,2.7,1.1c4,1.6,8.2,2.8,12.6,2.8
	c1,0,2,0,3-0.2c4.3-0.5,7.6-2.3,10.5-4.8c0.3-0.2,0.6-0.5,0.9-0.8c2.2-2.1,4.2-4.6,6.2-7.1c0.7-1,1.4-1.9,2.2-2.9
	c0.5-0.6,1-1.3,1.5-1.9c0.7-0.9,1.5-1.9,2.3-2.8c0.5-0.6,1-1.2,1.6-1.7c0.3-0.3,0.5-0.6,0.8-0.8c0.6-0.5,1.1-1.1,1.7-1.5
	c1.2-1,2.4-1.8,3.6-2.5c5-2.9,10.4-3.9,15.8-3.2c2,0.3,4.1,0.8,6,1.5c2,0.7,3.9,1.7,5.8,2.9c10,6.4,19.8,13.2,29.5,20.1
	c9.5,6.8,19,13.4,27.7,21.1c5.8,5.1,9,11.3,8.9,17.9C-1150.6-584.9-1150.7-583.7-1150.9-582.5z M-1303.5-824.2c0-1,0.2-1.9,0.5-2.7
	c0.5-1.4,1.3-2.6,2.3-3.6c1.7-1.5,4-2.4,6.8-2.2c13.8,0.8,27.2,3.2,40,8c1.1,0.4,2.1,0.8,3.2,1.3c3.2,1.3,6.3,2.8,9.3,4.4
	c7.3,3.9,13.9,8.2,19.8,13c0.8,0.7,1.7,1.4,2.5,2.1c3.3,2.8,6.3,5.8,9.2,9c5.7,6.3,10.5,13.2,14.4,20.7c1,1.9,1.9,3.8,2.8,5.7
	c4.4,9.7,7.4,20.4,9.2,32c0.3,1.7,0.7,3.3,0.8,5c0.1,1,0.1,2.1,0.2,3.1c0.1,2.1,0.3,4.3,0.4,6.8c0.1,1.2,0.1,2.5,0.2,3.9
	c0,0.1,0,0.3,0,0.4c0,0.5-0.1,1.2-0.2,1.9c-0.1,0.5-0.1,1-0.2,1.6c-0.1,0.5-0.2,1.1-0.4,1.7c-0.4,1.5-1.2,2.8-2.1,3.8
	c-1.5,1.5-3.4,2.4-5.5,2.7c-2.1,0.3-4.2-0.1-5.9-1.1c-0.6-0.3-1.1-0.8-1.6-1.3c-0.5-0.5-0.9-1.1-1.3-1.7c-0.2-0.4-0.5-0.9-0.6-1.4
	c-0.6-1.8-0.8-3.8-0.9-5.8c0-0.7,0-1.3,0-2c0-7.4-0.7-14.8-2.2-22.1c-1.9-9.3-5.2-18.3-10-26.6c-4.4-7.6-10-14.6-16.4-20.6
	c-6.4-6.1-13.7-11.2-21.6-15c-9.5-4.7-19.8-7.6-30.3-9.3c-1.1-0.2-2.3-0.4-3.4-0.5c-3.4-0.5-6.9-0.9-10.3-1.3c-0.3,0-0.7-0.1-1-0.2
	c-0.7-0.1-1.3-0.3-1.8-0.5c-0.3-0.1-0.6-0.2-0.8-0.4c-1.6-0.8-2.8-1.9-3.6-3.4c-0.5-1-0.8-2.1-1-3.3c0-0.3-0.1-0.6-0.1-1
	C-1303.6-823.5-1303.6-823.9-1303.5-824.2z M-1231.9-719.6c-3.4,0.1-2.6,0-1.3,0c-5.8-0.4-9-4-9.6-9.7c-0.5-4.3-0.9-8.6-1.9-12.8
	c-0.4-1.5-0.8-3.1-1.4-4.5c-0.4-1-0.8-2-1.2-2.9s-0.9-1.9-1.4-2.8s-1.1-1.8-1.7-2.7c-0.3-0.4-0.6-0.9-0.9-1.3
	c-1.9-2.5-4.1-4.8-6.7-6.6c-2.4-1.8-5.1-3.2-8-4.3c-0.9-0.4-1.9-0.7-2.9-1c-3.7-1.1-7.5-1.1-11.2-1.6c-0.6-0.1-1.2-0.2-1.9-0.3
	c-0.6-0.1-1.2-0.2-1.8-0.4c-1.3-0.3-2.5-0.8-3.5-1.5c-1.8-1.2-3-2.8-3.6-4.7c-0.2-0.5-0.3-1.1-0.4-1.7c-0.1-0.9-0.1-1.8,0.1-2.7
	c0.2-1.4,0.8-2.7,1.7-3.9c0.3-0.5,0.7-0.9,1.2-1.3c0.2-0.2,0.4-0.4,0.7-0.6c1.8-1.4,4.2-2.2,6.7-2c2.9,0.2,5.7,0.5,8.5,1
	c1.8,0.3,3.6,0.7,5.4,1.1c1.8,0.4,3.5,0.9,5.1,1.4c4.2,1.3,8.1,3.1,11.7,5.2c1.4,0.8,2.8,1.8,4.2,2.7c4,2.9,7.5,6.4,10.5,10.6
	c6,8.3,9.9,19.1,11.1,32.8c0,0.3,0.1,0.6,0.1,1c0.1,0.7,0.1,1.3,0.1,2c0,0.3,0,0.7,0,1c0,1.3-0.1,2.6-0.3,3.8
	c-0.1,0.5-0.3,1-0.4,1.4c-0.2,0.4-0.4,0.9-0.6,1.2c-0.4,0.8-1,1.4-1.6,2c-1.2,1.1-2.6,1.7-4.1,1.9
	C-1231.2-719.7-1231.2-719.7-1231.9-719.6z M-1139.5-697.8c-0.1,0.7-0.2,1.4-0.3,2.1c-0.3,1.3-0.9,2.6-1.7,3.6
	c-1.5,2.1-3.9,3.5-7,3.5c-0.8,0-1.6-0.1-2.2-0.2c-2.1-0.5-3.7-1.6-4.9-3.1c-0.4-0.5-0.7-1.1-1-1.7c-0.3-0.6-0.6-1.2-0.8-1.9
	c-0.2-0.7-0.4-1.3-0.5-2c-0.1-0.7-0.2-1.4-0.3-2.1c-0.1-1.4-0.2-2.9-0.3-4.3c-0.2-2.9-0.4-5.7-0.6-8.6c-0.3-4.3-0.6-8.6-1.1-12.8
	c-0.3-2.8-0.6-5.7-1-8.5c-0.4-2.8-0.9-5.6-1.4-8.3c-0.4-1.8-0.8-3.7-1.2-5.5c-0.2-0.9-0.5-1.8-0.7-2.7c-0.5-1.8-1-3.6-1.6-5.4
	c-0.3-0.9-0.6-1.8-0.9-2.6c-1.8-5.3-3.8-10.4-6.2-15.4c-0.8-1.7-1.6-3.3-2.5-4.9c-0.9-1.6-1.7-3.2-2.6-4.8c-1.4-2.4-2.8-4.7-4.3-7.1
	c-1-1.5-2-3.1-3.1-4.6c-0.5-0.7-1.1-1.5-1.6-2.2c-1.1-1.5-2.2-2.9-3.3-4.4c-8-10-17.3-19-27.7-26.6c-1.5-1.1-3-2.1-4.5-3.2
	c-2.3-1.5-4.6-3-7-4.4c-1.6-0.9-3.2-1.9-4.8-2.7c-0.8-0.4-1.6-0.9-2.4-1.3c-1.6-0.9-3.3-1.7-5-2.5c-0.8-0.4-1.7-0.8-2.5-1.2
	c-1.7-0.8-3.4-1.5-5.1-2.2c-0.9-0.3-1.7-0.7-2.6-1c-1.7-0.7-3.5-1.3-5.3-1.9c-6.2-2-12.5-3.7-19-4.8c-3.4-0.6-6.7-1-10.1-1.4
	c-5.7-0.6-11.4-1-17-1.6c-0.7-0.1-1.5-0.1-2.2-0.2c-0.8-0.1-1.5-0.2-2.3-0.3s-1.5-0.3-2.3-0.4c-3-0.7-5.6-2-7-4.8
	c-0.3-0.7-0.6-1.5-0.8-2.4c-0.1-0.4-0.1-0.7-0.1-1.1c0-0.7,0-1.4,0.1-2.1c0.1-0.3,0.1-0.7,0.3-1c0.2-0.6,0.5-1.3,0.8-1.8
	c0.7-1.2,1.6-2.1,2.7-2.9c0.6-0.4,1.1-0.7,1.8-1c0.6-0.3,1.3-0.5,2-0.7c0.7-0.2,1.4-0.3,2.1-0.3c1.5-0.1,3.1,0,4.6,0
	c75.2,2.1,7.9,0.3,0.6,0c16.2,0.5,31.8,3.1,46.6,7.6c1.1,0.3,2.3,0.7,3.4,1.1c3.4,1.1,6.7,2.3,9.9,3.6c2.2,0.9,4.3,1.8,6.5,2.7
	c6.4,2.8,12.5,6.1,18.4,9.7c1,0.6,2,1.2,2.9,1.8c2.9,1.9,5.8,3.8,8.5,5.8c0.9,0.7,1.8,1.4,2.8,2.1c3.6,2.8,7.2,5.7,10.5,8.8
	c25.4,23.1,43.3,54.5,49.9,91.5c1.8,10.1,2.7,20.4,3.5,30.7c0.3,3.4,0.5,6.9,0.8,10.3c0,0.4,0,0.7,0,1.1S-1139.4-698.1-1139.5-697.8
	z"/>
</svg>
