<?xml version="1.0" encoding="utf-8"?>
<!-- Generator: Adobe Illustrator 18.1.1, SVG Export Plug-In . SVG Version: 6.00 Build 0)  -->
<svg version="1.1" id="Capa_1" xmlns="http://www.w3.org/2000/svg" xmlns:xlink="http://www.w3.org/1999/xlink" x="0px" y="0px"
	 viewBox="-1116 -10 1000 1000" enable-background="new -1116 -10 1000 1000" xml:space="preserve">
<path fill="#C28B65" d="M-615.8-10h-0.3C-891.8-10-1116,214.3-1116,490c0,109.4,35.3,210.8,95.2,293.1l-62.3,185.8l192.2-61.4
	c79.1,52.4,173.4,82.6,275.1,82.6C-340.1,990-116,765.7-116,490S-340.1-10-615.8-10z M-324.9,696.1c-12.1,34.1-59.9,62.3-98.1,70.6
	c-26.1,5.6-60.3,10-175.1-37.6c-146.9-60.9-241.6-210.2-248.9-219.9c-7.1-9.7-59.4-79.1-59.4-150.8s36.4-106.7,51.1-121.7
	c12.1-12.3,32-17.9,51.1-17.9c6.2,0,11.8,0.3,16.8,0.6c14.7,0.6,22.1,1.5,31.8,24.7c12.1,29.1,41.4,100.8,44.9,108.2
	c3.6,7.4,7.1,17.4,2.1,27.1c-4.7,10-8.8,14.4-16.2,22.9s-14.4,15-21.8,24.1c-6.8,7.9-14.4,16.4-5.9,31.1
	c8.5,14.4,37.9,62.3,81.1,100.8c55.8,49.7,101.1,65.6,117.3,72.3c12.1,5,26.4,3.8,35.3-5.6c11.2-12.1,25-32.1,39.1-51.8
	c10-14.1,22.6-15.9,35.9-10.9c13.5,4.7,84.9,40,99.6,47.3c14.7,7.4,24.4,10.9,27.9,17.1C-312.8,632.9-312.8,661.9-324.9,696.1z"/>
</svg>
